<?xml version="1.0" encoding="UTF-8"?> <svg xmlns="http://www.w3.org/2000/svg" xmlns:xlink="http://www.w3.org/1999/xlink" viewBox="0 0 79.03 19.18"><defs><style>.cls-1{fill:none;}.cls-2{clip-path:url(#clip-path);}.cls-3{fill:#fff;}</style><clipPath id="clip-path" transform="translate(-7.86 -7.33)"><rect class="cls-1" width="94.76" height="33.85"></rect></clipPath></defs><title>logo hackeru bottom</title><g id="Layer_2" data-name="Layer 2"><g id="Layer_1-2" data-name="Layer 1"><g class="cls-2"><g class="cls-2"><path class="cls-3" d="M84,14.48l-2.09,7.21A4.56,4.56,0,0,1,81,23.46a3.11,3.11,0,0,1-2.56,1c-1.17,0-1.84-.33-2-1a3.37,3.37,0,0,1,.17-1.77l2.09-7.21H75.8l-2.09,7.21a4.9,4.9,0,0,0-.16,2.91q.74,1.92,4.32,1.92a7.13,7.13,0,0,0,5.41-1.92,7,7,0,0,0,1.52-2.91l2.09-7.21Z" transform="translate(-7.86 -7.33)"></path><polygon class="cls-3" points="7.97 7.15 10.04 0 5.44 0 3.38 7.15 7.97 7.15"></polygon><polygon class="cls-3" points="9.54 7.2 8.61 10.45 15.69 10.45 13.27 18.87 17.88 18.87 23.32 0 18.71 0 16.63 7.2 9.54 7.2"></polygon><polygon class="cls-3" points="0 18.87 4.59 18.87 6.98 10.56 2.4 10.56 0 18.87"></polygon><polygon class="cls-3" points="54.85 15.24 55.27 13.8 50.52 13.8 51.03 12.03 56.2 12.03 56.63 10.57 49.46 10.57 47.06 18.87 54.47 18.87 54.9 17.38 49.49 17.38 50.1 15.24 54.85 15.24"></polygon><path class="cls-3" d="M72.64,18.69a1.73,1.73,0,0,0-.78-.58,4.55,4.55,0,0,0-1.51-.21h-4.8l-2.39,8.31h2L66.09,23H68.2a1.73,1.73,0,0,1,1.15.26c.17.18.18.53,0,1.06l-.21.77a4.91,4.91,0,0,0-.12.72c0,.11,0,.26,0,.45h2.25l.06-.21a.49.49,0,0,1-.24-.48,4.44,4.44,0,0,1,.17-.77l.16-.56a2.27,2.27,0,0,0,.1-1.3,1.22,1.22,0,0,0-.77-.65,2.83,2.83,0,0,0,1.39-.81,2.87,2.87,0,0,0,.69-1.17,1.78,1.78,0,0,0,.07-.87,1.82,1.82,0,0,0-.3-.7M70.76,20.5a1.36,1.36,0,0,1-.89.94,3.34,3.34,0,0,1-1.07.13H66.48l.65-2.23H69.5a2.28,2.28,0,0,1,1,.15c.34.17.44.51.3,1" transform="translate(-7.86 -7.33)"></path><path class="cls-3" d="M32.82,17.9l-5.89,8.31h2.14l1.16-1.71h3.6L34,26.21h2.22L35.12,17.9ZM31.2,23.07l2.2-3.27.28,3.27Z" transform="translate(-7.86 -7.33)"></path><polygon class="cls-3" points="48.59 10.57 45.95 10.57 41.19 13.98 42.18 10.57 40.17 10.57 37.77 18.87 39.78 18.87 40.58 16.09 41.8 15.24 43.77 18.87 46.4 18.87 43.6 13.98 48.59 10.57"></polygon><path class="cls-3" d="M45.4,23.38h-2a3.64,3.64,0,0,1-.79,1,2.81,2.81,0,0,1-1.82.6,1.7,1.7,0,0,1-1.52-.7,2.46,2.46,0,0,1-.07-2.09A4.35,4.35,0,0,1,40.44,20a2.92,2.92,0,0,1,2-.77,1.74,1.74,0,0,1,1.49.54,1.62,1.62,0,0,1,.25.91h2A2.18,2.18,0,0,0,46,19.12q-.75-1.38-3.21-1.38a5.74,5.74,0,0,0-3.34,1,5.88,5.88,0,0,0-2.33,3.35,3.44,3.44,0,0,0,.29,3.17,3.52,3.52,0,0,0,3,1.15,5.59,5.59,0,0,0,3-.85,5.41,5.41,0,0,0,2-2.21" transform="translate(-7.86 -7.33)"></path></g></g></g></g></svg> 